<?xml version="1.0" encoding="UTF-8" standalone="no"?>
<svg
   xmlns:dc="http://purl.org/dc/elements/1.1/"
   xmlns:cc="http://creativecommons.org/ns#"
   xmlns:rdf="http://www.w3.org/1999/02/22-rdf-syntax-ns#"
   xmlns:svg="http://www.w3.org/2000/svg"
   xmlns="http://www.w3.org/2000/svg"
   xmlns:sodipodi="http://sodipodi.sourceforge.net/DTD/sodipodi-0.dtd"
   xmlns:inkscape="http://www.inkscape.org/namespaces/inkscape"
   width="220"
   height="80"
   viewBox="0 0 176 64"
   version="1.1"
   id="svg2"
   inkscape:version="0.47pre4 r22446"
   sodipodi:docname="logo.svg">
  <metadata
     id="metadata96">
    <rdf:RDF>
      <cc:Work
         rdf:about="">
        <dc:format>image/svg+xml</dc:format>
        <dc:type
           rdf:resource="http://purl.org/dc/dcmitype/StillImage" />
      </cc:Work>
    </rdf:RDF>
  </metadata>
  <sodipodi:namedview
     pagecolor="#ffffff"
     bordercolor="#666666"
     borderopacity="1"
     objecttolerance="10"
     gridtolerance="10"
     guidetolerance="10"
     inkscape:pageopacity="0"
     inkscape:pageshadow="2"
     inkscape:window-width="1280"
     inkscape:window-height="726"
     id="namedview94"
     showgrid="false"
     inkscape:zoom="1"
     inkscape:cx="543.54516"
     inkscape:cy="191.23106"
     inkscape:window-x="0"
     inkscape:window-y="25"
     inkscape:window-maximized="1"
     inkscape:current-layer="svg2" />
  <defs
     id="defs4">
    <inkscape:perspective
       sodipodi:type="inkscape:persp3d"
       inkscape:vp_x="0 : 175 : 1"
       inkscape:vp_y="0 : 1000 : 0"
       inkscape:vp_z="977.5 : 175 : 1"
       inkscape:persp3d-origin="488.75 : 116.66667 : 1"
       id="perspective98" />
    <clipPath
       id="clip0">
      <rect
         width="782"
         height="280"
         id="rect7"
         x="0"
         y="0" />
    </clipPath>
  </defs>
  <g
     id="g3094">
    <path
       style="fill:none;stroke:#fd351e;stroke-width:0.021;stroke-linecap:butt;stroke-linejoin:miter;stroke-miterlimit:10"
       d="m 11.60408,16.45158 c 2.50683,-2.50729 5.98821,-4.03628 9.53972,-4.10551 44.73175,-0.002 89.46363,-2e-5 134.19547,-7e-4 1.4261,0.007 2.86589,-0.0726 4.27712,0.19069 3.94155,0.66018 7.53075,3.09455 9.62636,6.49465 1.35769,2.10179 1.99223,4.58067 2.17716,7.0558 -0.0604,0.099 -0.18133,0.29699 -0.24177,0.39599 -0.0257,-3.11866 -1.10984,-6.20951 -3.05883,-8.64569 -2.53966,-3.22145 -6.55598,-5.24553 -10.66648,-5.28271 -45.43581,0.004 -90.87174,-10e-4 -136.30749,0.003 -3.5452,0.0864 -7.00811,1.64042 -9.49021,4.16256 -2.42151,2.46475 -3.95347,5.84888 -3.9964,9.32127 -0.0659,-0.28021 -0.14596,-0.55654 -0.23044,-0.83094 0.37759,-3.27486 1.79875,-6.44861 4.17579,-8.75802 z m 0,0"
       id="path14" />
    <path
       style="fill:#fd351e;fill-rule:nonzero;stroke:none"
       d="m 11.60408,16.45158 c 2.50683,-2.50729 5.98821,-4.03628 9.53972,-4.10551 44.73175,-0.002 89.46363,-2e-5 134.19547,-7e-4 1.4261,0.007 2.86589,-0.0726 4.27712,0.19069 3.94155,0.66018 7.53075,3.09455 9.62636,6.49465 1.35769,2.10179 1.99223,4.58067 2.17716,7.0558 -0.0604,0.099 -0.18133,0.29699 -0.24177,0.39599 -0.0257,-3.11866 -1.10984,-6.20951 -3.05883,-8.64569 -2.53966,-3.22145 -6.55598,-5.24553 -10.66648,-5.28271 -45.43581,0.004 -90.87174,-10e-4 -136.30749,0.003 -3.5452,0.0864 -7.00811,1.64042 -9.49021,4.16256 -2.42151,2.46475 -3.95347,5.84888 -3.9964,9.32127 -0.0659,-0.28021 -0.14596,-0.55654 -0.23044,-0.83094 0.37759,-3.27486 1.79875,-6.44861 4.17579,-8.75802 z m 0,0"
       id="path16" />
    <path
       style="fill:none;stroke:#fd351e;stroke-width:0.021;stroke-linecap:butt;stroke-linejoin:miter;stroke-miterlimit:10"
       d="m 22.69526,14.30773 c 44.14737,-0.0483 88.29639,-0.004 132.44442,-0.0223 3.63981,-0.0515 7.27617,1.37108 9.89805,3.8996 2.69625,2.54682 4.32407,6.19417 4.37237,9.90708 0.003,2.59049 -0.006,5.18109 0.003,7.77173 0.0605,3.70064 -1.43291,7.40483 -4.05621,10.01775 -2.63231,2.73021 -6.42923,4.29642 -10.22094,4.21446 -44.03359,-0.008 -88.06722,-6.3e-4 -132.10078,-0.004 -3.93741,-0.083 -7.7821,-1.95685 -10.31373,-4.96631 -2.17691,-2.55024 -3.41829,-5.90315 -3.33522,-9.26246 0.006,-2.44899 0.006,-4.89789 -3.2e-4,-7.34674 -0.0879,-3.80553 1.52204,-7.60146 4.26769,-10.22845 2.39374,-2.37127 5.67873,-3.80524 9.04129,-3.98076 z m 0,0"
       id="path22" />
    <path
       style="fill:#fd351e;fill-rule:nonzero;stroke:none"
       d="m 22.69526,14.30773 c 44.14737,-0.0483 88.29639,-0.004 132.44442,-0.0223 3.63981,-0.0515 7.27617,1.37108 9.89805,3.8996 2.69625,2.54682 4.32407,6.19417 4.37237,9.90708 0.003,2.59049 -0.006,5.18109 0.003,7.77173 0.0605,3.70064 -1.43291,7.40483 -4.05621,10.01775 -2.63231,2.73021 -6.42923,4.29642 -10.22094,4.21446 -44.03359,-0.008 -88.06722,-6.3e-4 -132.10078,-0.004 -3.93741,-0.083 -7.7821,-1.95685 -10.31373,-4.96631 -2.17691,-2.55024 -3.41829,-5.90315 -3.33522,-9.26246 0.006,-2.44899 0.006,-4.89789 -3.2e-4,-7.34674 -0.0879,-3.80553 1.52204,-7.60146 4.26769,-10.22845 2.39374,-2.37127 5.67873,-3.80524 9.04129,-3.98076 z m 0,0"
       id="path24" />
    <path
       style="fill:none;stroke:#ffffff;stroke-width:0.021;stroke-linecap:butt;stroke-linejoin:miter;stroke-miterlimit:10"
       d="m 34.66839,20.65769 c 2.19225,-0.50061 4.72771,-0.22659 6.46926,1.30291 1.62415,1.43481 2.36587,3.58901 2.72872,5.66822 0.43636,2.76273 0.44216,5.59235 0.0554,8.36143 -0.33922,2.14853 -1.03087,4.39031 -2.65951,5.9211 -1.54684,1.44263 -3.7977,1.82644 -5.83555,1.54814 -1.83783,-0.20755 -3.55122,-1.27444 -4.50901,-2.86228 -1.44603,-2.34977 -1.75524,-5.18444 -1.8388,-7.88595 -0.0322,-2.88523 0.13682,-5.8866 1.38842,-8.53619 0.79753,-1.71177 2.33339,-3.10416 4.20103,-3.51738 z m 0,0"
       id="path26" />
    <path
       style="fill:#ffffff;fill-rule:nonzero;stroke:none"
       d="m 34.66839,20.65769 c 2.19225,-0.50061 4.72771,-0.22659 6.46926,1.30291 1.62415,1.43481 2.36587,3.58901 2.72872,5.66822 0.43636,2.76273 0.44216,5.59235 0.0554,8.36143 -0.33922,2.14853 -1.03087,4.39031 -2.65951,5.9211 -1.54684,1.44263 -3.7977,1.82644 -5.83555,1.54814 -1.83783,-0.20755 -3.55122,-1.27444 -4.50901,-2.86228 -1.44603,-2.34977 -1.75524,-5.18444 -1.8388,-7.88595 -0.0322,-2.88523 0.13682,-5.8866 1.38842,-8.53619 0.79753,-1.71177 2.33339,-3.10416 4.20103,-3.51738 z m 0,0"
       id="path28" />
    <path
       style="fill:none;stroke:#ffffff;stroke-width:0.021;stroke-linecap:butt;stroke-linejoin:miter;stroke-miterlimit:10"
       d="m 87.67984,22.17171 c 1.51331,-1.54607 3.92679,-1.77804 5.92442,-1.20778 1.33973,0.38094 2.40666,1.41087 3.02687,2.63532 1.26085,2.47618 0.99292,5.52713 -0.18128,7.9856 -1.44893,3.08198 -4.19066,5.23675 -6.70012,7.42061 2.64712,0.0278 5.29474,-0.004 7.94228,0.0132 -0.039,1.46779 -0.16402,2.93235 -0.27839,4.39609 -4.03057,0.0235 -8.06134,0.006 -12.09183,0.009 -0.002,-1.45589 -0.0833,-2.92017 0.032,-4.37085 1.18623,-1.35813 2.50579,-2.59718 3.68641,-3.96273 1.53859,-1.73438 3.1446,-3.55101 3.77993,-5.83596 0.32289,-1.22197 0.4351,-2.61466 -0.15644,-3.77312 -0.50615,-0.95892 -2.03225,-1.00502 -2.60924,-0.0932 -0.68174,1.04753 -0.76891,2.34231 -0.9226,3.54932 -1.27336,-0.23676 -2.52461,-0.57392 -3.78175,-0.88029 0.22022,-2.10689 0.80367,-4.33294 2.32972,-5.88472 z m 0,0"
       id="path30" />
    <path
       style="fill:#ffffff;fill-rule:nonzero;stroke:none"
       d="m 87.67984,22.17171 c 1.51331,-1.54607 3.92679,-1.77804 5.92442,-1.20778 1.33973,0.38094 2.40666,1.41087 3.02687,2.63532 1.26085,2.47618 0.99292,5.52713 -0.18128,7.9856 -1.44893,3.08198 -4.19066,5.23675 -6.70012,7.42061 2.64712,0.0278 5.29474,-0.004 7.94228,0.0132 -0.039,1.46779 -0.16402,2.93235 -0.27839,4.39609 -4.03057,0.0235 -8.06134,0.006 -12.09183,0.009 -0.002,-1.45589 -0.0833,-2.92017 0.032,-4.37085 1.18623,-1.35813 2.50579,-2.59718 3.68641,-3.96273 1.53859,-1.73438 3.1446,-3.55101 3.77993,-5.83596 0.32289,-1.22197 0.4351,-2.61466 -0.15644,-3.77312 -0.50615,-0.95892 -2.03225,-1.00502 -2.60924,-0.0932 -0.68174,1.04753 -0.76891,2.34231 -0.9226,3.54932 -1.27336,-0.23676 -2.52461,-0.57392 -3.78175,-0.88029 0.22022,-2.10689 0.80367,-4.33294 2.32972,-5.88472 z m 0,0"
       id="path32" />
    <path
       style="fill:none;stroke:#ffffff;stroke-width:0.021;stroke-linecap:butt;stroke-linejoin:miter;stroke-miterlimit:10"
       d="m 104.59722,20.86479 c 1.58765,-0.3572 3.37443,-0.22234 4.75152,0.70732 0.98918,0.66749 1.60868,1.73906 2.01862,2.83515 0.74294,1.9932 0.98122,4.13247 1.06726,6.24544 0.0561,2.33383 -0.002,4.68463 -0.41765,6.98736 -0.34922,1.82262 -0.9219,3.77029 -2.39473,5.01061 -1.33048,1.12202 -3.20623,1.26693 -4.85784,0.97861 -1.60685,-0.29444 -2.93838,-1.49833 -3.55107,-2.99044 -1.37111,-3.14616 -1.36848,-6.66091 -1.29823,-10.02986 0.12285,-2.32286 0.34702,-4.70983 1.31846,-6.85263 0.62068,-1.39931 1.84883,-2.5507 3.36366,-2.89156 z m 0,0"
       id="path34" />
    <path
       style="fill:#ffffff;fill-rule:nonzero;stroke:none"
       d="m 104.59722,20.86479 c 1.58765,-0.3572 3.37443,-0.22234 4.75152,0.70732 0.98918,0.66749 1.60868,1.73906 2.01862,2.83515 0.74294,1.9932 0.98122,4.13247 1.06726,6.24544 0.0561,2.33383 -0.002,4.68463 -0.41765,6.98736 -0.34922,1.82262 -0.9219,3.77029 -2.39473,5.01061 -1.33048,1.12202 -3.20623,1.26693 -4.85784,0.97861 -1.60685,-0.29444 -2.93838,-1.49833 -3.55107,-2.99044 -1.37111,-3.14616 -1.36848,-6.66091 -1.29823,-10.02986 0.12285,-2.32286 0.34702,-4.70983 1.31846,-6.85263 0.62068,-1.39931 1.84883,-2.5507 3.36366,-2.89156 z m 0,0"
       id="path36" />
    <path
       style="fill:none;stroke:#ffffff;stroke-width:0.021;stroke-linecap:butt;stroke-linejoin:miter;stroke-miterlimit:10"
       d="m 126.64696,20.86601 c 1.49623,-0.33761 3.15971,-0.23831 4.50863,0.54174 1.06963,0.6183 1.77281,1.70438 2.20908,2.83434 0.80526,2.09323 1.06926,4.35003 1.13088,6.57883 0.0337,3.08067 -0.008,6.24919 -1.04893,9.18594 -0.56697,1.64943 -1.82821,3.15753 -3.58425,3.56517 -1.65783,0.35903 -3.55637,0.25931 -4.95579,-0.79295 -1.14592,-0.84629 -1.74562,-2.20436 -2.14727,-3.52912 -0.81427,-2.7271 -0.86434,-5.60687 -0.79295,-8.42972 0.12476,-2.33955 0.31233,-4.74598 1.26756,-6.916 0.60654,-1.45467 1.84436,-2.68928 3.41303,-3.03823 z m 0,0"
       id="path38" />
    <path
       style="fill:#ffffff;fill-rule:nonzero;stroke:none"
       d="m 126.64696,20.86601 c 1.49623,-0.33761 3.15971,-0.23831 4.50863,0.54174 1.06963,0.6183 1.77281,1.70438 2.20908,2.83434 0.80526,2.09323 1.06926,4.35003 1.13088,6.57883 0.0337,3.08067 -0.008,6.24919 -1.04893,9.18594 -0.56697,1.64943 -1.82821,3.15753 -3.58425,3.56517 -1.65783,0.35903 -3.55637,0.25931 -4.95579,-0.79295 -1.14592,-0.84629 -1.74562,-2.20436 -2.14727,-3.52912 -0.81427,-2.7271 -0.86434,-5.60687 -0.79295,-8.42972 0.12476,-2.33955 0.31233,-4.74598 1.26756,-6.916 0.60654,-1.45467 1.84436,-2.68928 3.41303,-3.03823 z m 0,0"
       id="path40" />
    <path
       style="fill:none;stroke:#ffffff;stroke-width:0.021;stroke-linecap:butt;stroke-linejoin:miter;stroke-miterlimit:10"
       d="m 138.71887,21.96865 c 1.58352,-1.38057 3.91962,-1.55993 5.86872,-0.9708 1.82836,0.56198 3.08084,2.319 3.35522,4.16696 0.22143,1.63612 0.20106,3.44751 -0.74837,4.8698 -0.42722,0.69243 -1.0969,1.17289 -1.74727,1.63636 0.78918,0.43238 1.5901,0.92769 2.07776,1.71069 0.93681,1.41107 0.97282,3.18497 0.84579,4.81606 -0.14954,1.6231 -0.82541,3.2787 -2.15941,4.27994 -2.61933,2.06354 -6.98838,1.64522 -8.9635,-1.11662 -0.86725,-1.23439 -1.20257,-2.74476 -1.40156,-4.21538 1.22018,-0.29752 2.45203,-0.56216 3.69838,-0.72793 0.13805,0.90333 0.26198,1.88443 0.87392,2.60939 0.726,0.88771 2.27607,0.93678 3.01337,0.0381 0.63644,-0.7687 0.72301,-1.82386 0.67636,-2.78196 -0.0331,-0.87872 -0.38873,-1.83929 -1.20111,-2.27741 -0.84779,-0.47241 -1.8504,-0.31694 -2.77664,-0.36279 -0.0281,-1.21711 -0.029,-2.43468 4.2e-4,-3.65151 1.02599,-0.0638 2.26542,0.19929 3.09074,-0.57309 0.86984,-1.0087 0.80822,-2.52163 0.45946,-3.72893 -0.29368,-1.03966 -1.66734,-1.47719 -2.5367,-0.8708 -0.80064,0.55182 -1.03284,1.55253 -1.25724,2.43704 -1.21234,-0.2163 -2.41139,-0.5003 -3.60554,-0.79628 0.38459,-1.67479 1.10389,-3.35238 2.4371,-4.49085 z m 0,0"
       id="path42" />
    <path
       style="fill:#ffffff;fill-rule:nonzero;stroke:none"
       d="m 138.71887,21.96865 c 1.58352,-1.38057 3.91962,-1.55993 5.86872,-0.9708 1.82836,0.56198 3.08084,2.319 3.35522,4.16696 0.22143,1.63612 0.20106,3.44751 -0.74837,4.8698 -0.42722,0.69243 -1.0969,1.17289 -1.74727,1.63636 0.78918,0.43238 1.5901,0.92769 2.07776,1.71069 0.93681,1.41107 0.97282,3.18497 0.84579,4.81606 -0.14954,1.6231 -0.82541,3.2787 -2.15941,4.27994 -2.61933,2.06354 -6.98838,1.64522 -8.9635,-1.11662 -0.86725,-1.23439 -1.20257,-2.74476 -1.40156,-4.21538 1.22018,-0.29752 2.45203,-0.56216 3.69838,-0.72793 0.13805,0.90333 0.26198,1.88443 0.87392,2.60939 0.726,0.88771 2.27607,0.93678 3.01337,0.0381 0.63644,-0.7687 0.72301,-1.82386 0.67636,-2.78196 -0.0331,-0.87872 -0.38873,-1.83929 -1.20111,-2.27741 -0.84779,-0.47241 -1.8504,-0.31694 -2.77664,-0.36279 -0.0281,-1.21711 -0.029,-2.43468 4.2e-4,-3.65151 1.02599,-0.0638 2.26542,0.19929 3.09074,-0.57309 0.86984,-1.0087 0.80822,-2.52163 0.45946,-3.72893 -0.29368,-1.03966 -1.66734,-1.47719 -2.5367,-0.8708 -0.80064,0.55182 -1.03284,1.55253 -1.25724,2.43704 -1.21234,-0.2163 -2.41139,-0.5003 -3.60554,-0.79628 0.38459,-1.67479 1.10389,-3.35238 2.4371,-4.49085 z m 0,0"
       id="path44" />
    <path
       style="fill:none;stroke:#ffffff;stroke-width:0.021;stroke-linecap:butt;stroke-linejoin:miter;stroke-miterlimit:10"
       d="m 46.68197,20.91935 c 1.68185,-0.006 3.36866,-0.0746 5.04801,0.0358 0.80365,4.21768 1.66002,8.42529 2.47894,12.64001 0.14076,-0.42896 0.24836,-0.86793 0.33233,-1.31098 0.71623,-3.77699 1.51581,-7.53814 2.21278,-11.31859 1.45573,-0.13315 2.92369,-0.0474 4.38426,-0.0463 -1.59199,7.10659 -3.28018,14.19201 -4.88792,21.29536 -0.095,0.26864 -0.0747,0.60918 -0.29673,0.81551 -1.35749,0.0468 -2.7237,0.0707 -4.07944,-0.0282 -1.70703,-7.36634 -3.50919,-14.71125 -5.19223,-22.08253 z m 0,0"
       id="path46" />
    <path
       style="fill:#ffffff;fill-rule:nonzero;stroke:none"
       d="m 46.68197,20.91935 c 1.68185,-0.006 3.36866,-0.0746 5.04801,0.0358 0.80365,4.21768 1.66002,8.42529 2.47894,12.64001 0.14076,-0.42896 0.24836,-0.86793 0.33233,-1.31098 0.71623,-3.77699 1.51581,-7.53814 2.21278,-11.31859 1.45573,-0.13315 2.92369,-0.0474 4.38426,-0.0463 -1.59199,7.10659 -3.28018,14.19201 -4.88792,21.29536 -0.095,0.26864 -0.0747,0.60918 -0.29673,0.81551 -1.35749,0.0468 -2.7237,0.0707 -4.07944,-0.0282 -1.70703,-7.36634 -3.50919,-14.71125 -5.19223,-22.08253 z m 0,0"
       id="path48" />
    <path
       style="fill:none;stroke:#ffffff;stroke-width:0.021;stroke-linecap:butt;stroke-linejoin:miter;stroke-miterlimit:10"
       d="m 62.27041,20.92254 c 1.88751,-0.0241 3.77766,-0.0535 5.66463,0.0154 0.61594,1.67683 1.29416,3.33053 1.88212,5.01781 0.83394,-1.66171 1.57611,-3.36739 2.39214,-5.03785 1.50325,-0.0251 3.00767,-0.0318 4.51113,0.006 -1.50073,3.27236 -3.14971,6.47804 -4.7354,9.71115 1.78461,4.15351 3.72641,8.23991 5.48956,12.40239 -1.888,0.0201 -3.77956,0.0614 -5.6657,-0.0208 -0.90457,-2.1319 -1.71063,-4.30951 -2.70636,-6.40002 -1.04855,2.11744 -2.0042,4.27961 -3.03328,6.40661 -1.50593,0.0682 -3.01539,0.0388 -4.52189,0.0129 1.66819,-3.66427 3.51594,-7.24679 5.2397,-10.88589 0.12171,-0.24912 0.21352,-0.52931 0.0483,-0.78312 -1.50914,-3.48675 -3.09613,-6.94117 -4.56495,-10.44494 z m 0,0"
       id="path50" />
    <path
       style="fill:#ffffff;fill-rule:nonzero;stroke:none"
       d="m 62.27041,20.92254 c 1.88751,-0.0241 3.77766,-0.0535 5.66463,0.0154 0.61594,1.67683 1.29416,3.33053 1.88212,5.01781 0.83394,-1.66171 1.57611,-3.36739 2.39214,-5.03785 1.50325,-0.0251 3.00767,-0.0318 4.51113,0.006 -1.50073,3.27236 -3.14971,6.47804 -4.7354,9.71115 1.78461,4.15351 3.72641,8.23991 5.48956,12.40239 -1.888,0.0201 -3.77956,0.0614 -5.6657,-0.0208 -0.90457,-2.1319 -1.71063,-4.30951 -2.70636,-6.40002 -1.04855,2.11744 -2.0042,4.27961 -3.03328,6.40661 -1.50593,0.0682 -3.01539,0.0388 -4.52189,0.0129 1.66819,-3.66427 3.51594,-7.24679 5.2397,-10.88589 0.12171,-0.24912 0.21352,-0.52931 0.0483,-0.78312 -1.50914,-3.48675 -3.09613,-6.94117 -4.56495,-10.44494 z m 0,0"
       id="path52" />
    <path
       style="fill:none;stroke:#fd351e;stroke-width:0.021;stroke-linecap:butt;stroke-linejoin:miter;stroke-miterlimit:10"
       d="m 105.65702,24.40066 c 0.68409,-0.27611 1.52809,0.0696 1.80759,0.75706 0.5085,1.15226 0.45083,2.44903 0.54632,3.68084 0.0202,1.57416 0.13064,3.14887 0.0475,4.72316 -0.046,1.68421 -0.01,3.38805 -0.33919,5.04824 -0.13624,0.74174 -0.69236,1.54337 -1.52508,1.51705 -1.04532,0.0754 -1.57167,-1.07456 -1.66391,-1.95273 -0.31029,-2.43426 -0.27057,-4.89756 -0.26962,-7.34689 0.0622,-1.59762 0.0382,-3.20926 0.32053,-4.78837 0.12713,-0.64787 0.42095,-1.37015 1.07583,-1.63836 z m 0,0"
       id="path54" />
    <path
       style="fill:#fd351e;fill-rule:nonzero;stroke:none"
       d="m 105.65702,24.40066 c 0.68409,-0.27611 1.52809,0.0696 1.80759,0.75706 0.5085,1.15226 0.45083,2.44903 0.54632,3.68084 0.0202,1.57416 0.13064,3.14887 0.0475,4.72316 -0.046,1.68421 -0.01,3.38805 -0.33919,5.04824 -0.13624,0.74174 -0.69236,1.54337 -1.52508,1.51705 -1.04532,0.0754 -1.57167,-1.07456 -1.66391,-1.95273 -0.31029,-2.43426 -0.27057,-4.89756 -0.26962,-7.34689 0.0622,-1.59762 0.0382,-3.20926 0.32053,-4.78837 0.12713,-0.64787 0.42095,-1.37015 1.07583,-1.63836 z m 0,0"
       id="path56" />
    <path
       style="fill:none;stroke:#fd351e;stroke-width:0.021;stroke-linecap:butt;stroke-linejoin:miter;stroke-miterlimit:10"
       d="m 127.71024,24.40672 c 0.62416,-0.2593 1.41294,0.008 1.73421,0.60834 0.46611,0.83802 0.48061,1.82921 0.57194,2.76089 0.16958,3.10815 0.17831,6.22766 -0.0284,9.3343 -0.0878,0.86285 -0.12046,1.81578 -0.68303,2.52658 -0.53044,0.70845 -1.73519,0.64091 -2.21697,-0.0874 -0.54084,-0.80653 -0.54583,-1.82138 -0.6441,-2.75318 -0.17733,-3.27287 -0.1971,-6.5603 0.0634,-9.82895 0.10272,-0.92873 0.24344,-2.11993 1.20295,-2.56059 z m 0,0"
       id="path58" />
    <path
       style="fill:#fd351e;fill-rule:nonzero;stroke:none"
       d="m 127.71024,24.40672 c 0.62416,-0.2593 1.41294,0.008 1.73421,0.60834 0.46611,0.83802 0.48061,1.82921 0.57194,2.76089 0.16958,3.10815 0.17831,6.22766 -0.0284,9.3343 -0.0878,0.86285 -0.12046,1.81578 -0.68303,2.52658 -0.53044,0.70845 -1.73519,0.64091 -2.21697,-0.0874 -0.54084,-0.80653 -0.54583,-1.82138 -0.6441,-2.75318 -0.17733,-3.27287 -0.1971,-6.5603 0.0634,-9.82895 0.10272,-0.92873 0.24344,-2.11993 1.20295,-2.56059 z m 0,0"
       id="path60" />
    <path
       style="fill:none;stroke:#fd351e;stroke-width:0.021;stroke-linecap:butt;stroke-linejoin:miter;stroke-miterlimit:10"
       d="m 36.16752,24.86786 c 0.67612,-0.24063 1.45402,0.0838 1.813,0.69235 0.49218,0.82996 0.57061,1.82249 0.67493,2.76105 0.18747,2.43413 0.18794,4.88392 -2.1e-4,7.31815 -0.11363,0.98563 -0.18219,2.04382 -0.75189,2.89288 -0.49651,0.79395 -1.76196,0.86541 -2.38408,0.18712 -0.46209,-0.47044 -0.61873,-1.13893 -0.74062,-1.76474 -0.20684,-1.19277 -0.24914,-2.40621 -0.28951,-3.61348 -0.0127,-2.10548 -0.0492,-4.22735 0.29192,-6.31191 0.14386,-0.85053 0.50123,-1.84448 1.38647,-2.16142 z m 0,0"
       id="path62" />
    <path
       style="fill:#fd351e;fill-rule:nonzero;stroke:none"
       d="m 36.16752,24.86786 c 0.67612,-0.24063 1.45402,0.0838 1.813,0.69235 0.49218,0.82996 0.57061,1.82249 0.67493,2.76105 0.18747,2.43413 0.18794,4.88392 -2.1e-4,7.31815 -0.11363,0.98563 -0.18219,2.04382 -0.75189,2.89288 -0.49651,0.79395 -1.76196,0.86541 -2.38408,0.18712 -0.46209,-0.47044 -0.61873,-1.13893 -0.74062,-1.76474 -0.20684,-1.19277 -0.24914,-2.40621 -0.28951,-3.61348 -0.0127,-2.10548 -0.0492,-4.22735 0.29192,-6.31191 0.14386,-0.85053 0.50123,-1.84448 1.38647,-2.16142 z m 0,0"
       id="path64" />
    <path
       style="fill:none;stroke:#fd8575;stroke-width:0.021;stroke-linecap:butt;stroke-linejoin:miter;stroke-miterlimit:10"
       d="m 7.29,24.97267 0.13829,0.23693 c 0.0845,0.2744 0.16451,0.55073 0.23044,0.83094 0.0267,4.09895 -0.007,8.19817 0.0178,12.29723 -0.0842,0.27866 -0.18703,0.5516 -0.29731,0.82193 l -0.0892,0.22006 0,-14.40709 z m 0,0"
       id="path66" />
    <path
       style="fill:#fd8575;fill-rule:nonzero;stroke:none"
       d="m 7.29,24.97267 0.13829,0.23693 c 0.0845,0.2744 0.16451,0.55073 0.23044,0.83094 0.0267,4.09895 -0.007,8.19817 0.0178,12.29723 -0.0842,0.27866 -0.18703,0.5516 -0.29731,0.82193 l -0.0892,0.22006 0,-14.40709 z m 0,0"
       id="path68" />
    <path
       style="fill:none;stroke:#fd8575;stroke-width:0.021;stroke-linecap:butt;stroke-linejoin:miter;stroke-miterlimit:10"
       d="m 171.41991,26.08623 0.0901,0.24646 0,11.70023 c -0.0957,0.66929 -0.0978,1.37733 -0.37124,2.00382 -0.11158,-0.33224 -0.0803,-0.68611 -0.0754,-1.02859 0.17352,-4.17315 -0.027,-8.35284 0.11479,-12.52593 0.0604,-0.099 0.18133,-0.29699 0.24177,-0.39599 z m 0,0"
       id="path70" />
    <path
       style="fill:#fd8575;fill-rule:nonzero;stroke:none"
       d="m 171.41991,26.08623 0.0901,0.24646 0,11.70023 c -0.0957,0.66929 -0.0978,1.37733 -0.37124,2.00382 -0.11158,-0.33224 -0.0803,-0.68611 -0.0754,-1.02859 0.17352,-4.17315 -0.027,-8.35284 0.11479,-12.52593 0.0604,-0.099 0.18133,-0.29699 0.24177,-0.39599 z m 0,0"
       id="path72" />
    <path
       style="fill:none;stroke:#000000;stroke-width:0.021;stroke-linecap:butt;stroke-linejoin:miter;stroke-miterlimit:10"
       d="m 153.97028,29.68426 c 1.2799,-0.17661 2.56957,-0.61239 3.85165,-0.57701 0.81468,0.90802 1.62452,1.83225 2.35515,2.81019 -0.15155,0.98014 -0.64656,1.87266 -0.92474,2.8217 -0.159,0.30902 -0.16985,0.82308 -0.59361,0.88431 -1.17184,0.24885 -2.35598,0.44378 -3.54122,0.61222 -0.84339,-0.94223 -1.6507,-1.91531 -2.45286,-2.89177 0.37207,-1.24125 0.83931,-2.45137 1.30563,-3.65964 z m 0,0"
       id="path74" />
    <path
       style="fill:#000000;fill-rule:nonzero;stroke:none"
       d="m 153.97028,29.68426 c 1.2799,-0.17661 2.56957,-0.61239 3.85165,-0.57701 0.81468,0.90802 1.62452,1.83225 2.35515,2.81019 -0.15155,0.98014 -0.64656,1.87266 -0.92474,2.8217 -0.159,0.30902 -0.16985,0.82308 -0.59361,0.88431 -1.17184,0.24885 -2.35598,0.44378 -3.54122,0.61222 -0.84339,-0.94223 -1.6507,-1.91531 -2.45286,-2.89177 0.37207,-1.24125 0.83931,-2.45137 1.30563,-3.65964 z m 0,0"
       id="path76" />
    <path
       style="fill:none;stroke:#000000;stroke-width:0.021;stroke-linecap:butt;stroke-linejoin:miter;stroke-miterlimit:10"
       d="m 18.2625,30.01377 c 1.28227,-0.23344 2.55958,-0.50683 3.85585,-0.65282 0.80135,0.986 1.66654,1.92037 2.42566,2.94046 -0.41446,1.18688 -0.79683,2.39222 -1.31057,3.53972 -1.21498,0.39682 -2.51681,0.48001 -3.76806,0.7402 -0.86913,-0.9289 -1.64247,-1.94084 -2.48531,-2.89263 0.34712,-1.2516 0.86601,-2.44619 1.28243,-3.67493 z m 0,0"
       id="path78" />
    <path
       style="fill:#000000;fill-rule:nonzero;stroke:none"
       d="m 18.2625,30.01377 c 1.28227,-0.23344 2.55958,-0.50683 3.85585,-0.65282 0.80135,0.986 1.66654,1.92037 2.42566,2.94046 -0.41446,1.18688 -0.79683,2.39222 -1.31057,3.53972 -1.21498,0.39682 -2.51681,0.48001 -3.76806,0.7402 -0.86913,-0.9289 -1.64247,-1.94084 -2.48531,-2.89263 0.34712,-1.2516 0.86601,-2.44619 1.28243,-3.67493 z m 0,0"
       id="path80" />
    <path
       style="fill:none;stroke:#ffffff;stroke-width:0.021;stroke-linecap:butt;stroke-linejoin:miter;stroke-miterlimit:10"
       d="m 114.39718,33.094 c 1.86903,-0.0102 3.73961,-0.0409 5.60854,0.0179 0.006,1.20536 0.006,2.41083 1e-5,3.61647 -1.86892,0.0594 -3.73955,0.0279 -5.6086,0.0183 -0.0144,-1.21766 -0.0144,-2.43526 5e-5,-3.65263 z m 0,0"
       id="path82" />
    <path
       style="fill:#ffffff;fill-rule:nonzero;stroke:none"
       d="m 114.39718,33.094 c 1.86903,-0.0102 3.73961,-0.0409 5.60854,0.0179 0.006,1.20536 0.006,2.41083 1e-5,3.61647 -1.86892,0.0594 -3.73955,0.0279 -5.6086,0.0183 -0.0144,-1.21766 -0.0144,-2.43526 5e-5,-3.65263 z m 0,0"
       id="path84" />
    <path
       style="fill:none;stroke:#fd351e;stroke-width:0.021;stroke-linecap:butt;stroke-linejoin:miter;stroke-miterlimit:10"
       d="m 7.37918,39.1597 c 0.11028,-0.27033 0.21315,-0.54327 0.29731,-0.82193 0.003,0.63424 0.0461,1.26761 0.0492,1.90254 C 7.60442,39.88137 7.4945,39.51945 7.37916,39.1597 z m 0,0"
       id="path86" />
    <path
       style="fill:#fd351e;fill-rule:nonzero;stroke:none"
       d="m 7.37918,39.1597 c 0.11028,-0.27033 0.21315,-0.54327 0.29731,-0.82193 0.003,0.63424 0.0461,1.26761 0.0492,1.90254 C 7.60442,39.88137 7.4945,39.51945 7.37916,39.1597 z m 0,0"
       id="path88" />
    <path
       style="fill:none;stroke:#fd351e;stroke-width:0.021;stroke-linecap:butt;stroke-linejoin:miter;stroke-miterlimit:10"
       d="m 7.67117,40.18012 c 0.17481,0.32126 0.2852,0.67153 0.37067,1.02656 0.84641,3.61239 3.26191,6.79776 6.44381,8.68549 2.2504,1.35624 4.88921,1.99907 7.50792,1.98495 45.00632,-10e-4 90.01277,0.006 135.01906,-0.004 5.35778,0.0752 10.59237,-3.17893 12.81189,-8.06807 0.61606,-1.09219 0.76525,-2.37472 1.23814,-3.50423 0.0321,1.1965 -0.51513,2.3425 -0.94796,3.44203 -2.20384,4.97514 -7.45635,8.36643 -12.89851,8.33662 -45.07386,0.0167 -90.14804,10e-4 -135.222,0.007 -3.68583,0.0588 -7.40218,-1.28741 -10.07566,-3.84777 -2.23821,-2.11173 -3.92377,-4.97 -4.24736,-8.05961 z m 0,0"
       id="path90" />
    <path
       style="fill:#fd351e;fill-rule:nonzero;stroke:none"
       d="m 7.67117,40.18012 c 0.17481,0.32126 0.2852,0.67153 0.37067,1.02656 0.84641,3.61239 3.26191,6.79776 6.44381,8.68549 2.2504,1.35624 4.88921,1.99907 7.50792,1.98495 45.00632,-10e-4 90.01277,0.006 135.01906,-0.004 5.35778,0.0752 10.59237,-3.17893 12.81189,-8.06807 0.61606,-1.09219 0.76525,-2.37472 1.23814,-3.50423 0.0321,1.1965 -0.51513,2.3425 -0.94796,3.44203 -2.20384,4.97514 -7.45635,8.36643 -12.89851,8.33662 -45.07386,0.0167 -90.14804,10e-4 -135.222,0.007 -3.68583,0.0588 -7.40218,-1.28741 -10.07566,-3.84777 -2.23821,-2.11173 -3.92377,-4.97 -4.24736,-8.05961 z m 0,0"
       id="path92" />
  </g>
</svg>
